<?xml version="1.0" encoding="utf-8"?>
<!-- Generator: Adobe Illustrator 18.0.0, SVG Export Plug-In . SVG Version: 6.00 Build 0)  -->
<!DOCTYPE svg PUBLIC "-//W3C//DTD SVG 1.1//EN" "http://www.w3.org/Graphics/SVG/1.1/DTD/svg11.dtd">
<svg version="1.1" id="Layer_1" xmlns="http://www.w3.org/2000/svg" xmlns:xlink="http://www.w3.org/1999/xlink" x="0px" y="0px"
	 viewBox="0 0 76 103.7" enable-background="new 0 0 76 103.7" xml:space="preserve">
<g id="LiveArt_6_">
	<g>
		<path fill="#F8EFDD" d="M64.9,11.1c-14.8-14.8-38.9-14.8-53.8,0c-14.8,14.8-14.8,38.9,0,53.8L38,91.8l26.9-26.9
			C79.7,50.1,79.7,25.9,64.9,11.1z"/>
		<polygon fill="#833F1E" points="46.9,103.7 29.1,103.7 27.3,89 48.7,89 		"/>
		<path fill="#CCDECA" d="M10.9,11.4C3.6,18.8,0,28.4,0,38s3.6,19.2,10.9,26.6V11.4z"/>
		<path fill="#CCDECA" d="M21.7,3.7v71.8l10.9,10.9V0.4C28.8,0.9,25.2,2,21.7,3.7z"/>
		<path fill="#CCDECA" d="M43.4,0.4v85.9l10.9-10.9V3.7C50.8,2,47.2,0.9,43.4,0.4z"/>
		<path fill="#CCDECA" d="M65.1,64.6C72.4,57.2,76,47.6,76,38s-3.6-19.2-10.9-26.6V64.6z"/>
		<path fill="#EF655B" d="M11.1,11.1c-2.5,2.5-4.5,5.2-6.2,8.2h66.2c-1.7-2.9-3.7-5.7-6.2-8.2C50.1-3.7,25.9-3.7,11.1,11.1z"/>
	</g>
</g>
</svg>
