<?xml version="1.0" encoding="utf-8"?>
<!-- Generator: Adobe Illustrator 18.0.0, SVG Export Plug-In . SVG Version: 6.00 Build 0)  -->
<!DOCTYPE svg PUBLIC "-//W3C//DTD SVG 1.1//EN" "http://www.w3.org/Graphics/SVG/1.1/DTD/svg11.dtd">
<svg version="1.1" id="Layer_1" xmlns="http://www.w3.org/2000/svg" xmlns:xlink="http://www.w3.org/1999/xlink" x="0px" y="0px"
	 viewBox="0 0 172 208.5" enable-background="new 0 0 172 208.5" xml:space="preserve">
<g id="LiveArt_5_">
	<g>
		<g>
			<rect x="16.7" y="46.6" fill="#04515B" width="68.9" height="29.6"/>
			<rect x="0" y="61.6" fill="#CCDECA" width="102.2" height="146.7"/>
			<path fill="#E9E4D1" d="M14.1,82.4c-2,0-3.7,1.7-3.7,3.7v15.3h7.4V86.1C17.8,84,16.1,82.4,14.1,82.4z"/>
			<path fill="#E9E4D1" d="M32.6,82.4c-2,0-3.7,1.7-3.7,3.7v15.3h7.4V86.1C36.3,84,34.7,82.4,32.6,82.4z"/>
			<path fill="#E9E4D1" d="M51.1,82.4c-2,0-3.7,1.7-3.7,3.7v15.3h7.4V86.1C54.8,84,53.2,82.4,51.1,82.4z"/>
			<path fill="#E9E4D1" d="M69.6,82.4c-2,0-3.7,1.7-3.7,3.7v15.3h7.4V86.1C73.3,84,71.7,82.4,69.6,82.4z"/>
			<path fill="#E9E4D1" d="M88.2,82.4c-2,0-3.7,1.7-3.7,3.7v15.3h7.4V86.1C91.9,84,90.2,82.4,88.2,82.4z"/>
			<path fill="#E9E4D1" d="M14.1,114c-2,0-3.7,1.7-3.7,3.7V133h7.4v-15.3C17.8,115.7,16.1,114,14.1,114z"/>
			<path fill="#E9E4D1" d="M32.6,114c-2,0-3.7,1.7-3.7,3.7V133h7.4v-15.3C36.3,115.7,34.7,114,32.6,114z"/>
			<path fill="#E9E4D1" d="M51.1,114c-2,0-3.7,1.7-3.7,3.7V133h7.4v-15.3C54.8,115.7,53.2,114,51.1,114z"/>
			<path fill="#E9E4D1" d="M69.6,114c-2,0-3.7,1.7-3.7,3.7V133h7.4v-15.3C73.3,115.7,71.7,114,69.6,114z"/>
			<path fill="#E9E4D1" d="M88.2,114c-2,0-3.7,1.7-3.7,3.7V133h7.4v-15.3C91.9,115.7,90.2,114,88.2,114z"/>
			<path fill="#E9E4D1" d="M14.1,145.6c-2,0-3.7,1.7-3.7,3.7v15.3h7.4v-15.3C17.8,147.3,16.1,145.6,14.1,145.6z"/>
			<path fill="#E9E4D1" d="M32.6,145.6c-2,0-3.7,1.7-3.7,3.7v15.3h7.4v-15.3C36.3,147.3,34.7,145.6,32.6,145.6z"/>
			<path fill="#E9E4D1" d="M51.1,145.6c-2,0-3.7,1.7-3.7,3.7v15.3h7.4v-15.3C54.8,147.3,53.2,145.6,51.1,145.6z"/>
			<path fill="#E9E4D1" d="M69.6,145.6c-2,0-3.7,1.7-3.7,3.7v15.3h7.4v-15.3C73.3,147.3,71.7,145.6,69.6,145.6z"/>
			<path fill="#E9E4D1" d="M88.2,145.6c-2,0-3.7,1.7-3.7,3.7v15.3h7.4v-15.3C91.9,147.3,90.2,145.6,88.2,145.6z"/>
			<path fill="#E9E4D1" d="M14.1,177.2c-2,0-3.7,1.7-3.7,3.7v15.3h7.4v-15.3C17.8,178.9,16.1,177.2,14.1,177.2z"/>
			<path fill="#E9E4D1" d="M32.6,177.2c-2,0-3.7,1.7-3.7,3.7v15.3h7.4v-15.3C36.3,178.9,34.7,177.2,32.6,177.2z"/>
			<path fill="#833F1E" d="M51.1,177.2c-4.2,0-7.5,3.4-7.5,7.5v23.6h15.1v-23.6C58.7,180.6,55.3,177.2,51.1,177.2z"/>
			<path fill="#E9E4D1" d="M69.6,177.2c-2,0-3.7,1.7-3.7,3.7v15.3h7.4v-15.3C73.3,178.9,71.7,177.2,69.6,177.2z"/>
			<path fill="#E9E4D1" d="M88.2,177.2c-2,0-3.7,1.7-3.7,3.7v15.3h7.4v-15.3C91.9,178.9,90.2,177.2,88.2,177.2z"/>
			<path fill="#04515B" d="M17.8,86.1c0-2-1.7-3.7-3.7-3.7s-3.7,1.7-3.7,3.7v6.1h7.4V86.1z"/>
			<path fill="#04515B" d="M36.3,86.1c0-2-1.7-3.7-3.7-3.7c-2,0-3.7,1.7-3.7,3.7v6.1h7.4V86.1z"/>
			<path fill="#04515B" d="M54.8,86.1c0-2-1.7-3.7-3.7-3.7c-2,0-3.7,1.7-3.7,3.7v6.1h7.4V86.1z"/>
			<path fill="#04515B" d="M73.3,86.1c0-2-1.7-3.7-3.7-3.7s-3.7,1.7-3.7,3.7v6.1h7.4V86.1z"/>
			<path fill="#04515B" d="M91.9,86.1c0-2-1.7-3.7-3.7-3.7c-2,0-3.7,1.7-3.7,3.7v6.1h7.4V86.1z"/>
			<path fill="#04515B" d="M17.8,117.7c0-2-1.7-3.7-3.7-3.7s-3.7,1.7-3.7,3.7v6.1h7.4V117.7z"/>
			<path fill="#04515B" d="M36.3,117.7c0-2-1.7-3.7-3.7-3.7c-2,0-3.7,1.7-3.7,3.7v6.1h7.4V117.7z"/>
			<path fill="#04515B" d="M54.8,117.7c0-2-1.7-3.7-3.7-3.7c-2,0-3.7,1.7-3.7,3.7v6.1h7.4V117.7z"/>
			<path fill="#04515B" d="M73.3,117.7c0-2-1.7-3.7-3.7-3.7s-3.7,1.7-3.7,3.7v6.1h7.4V117.7z"/>
			<path fill="#04515B" d="M91.9,117.7c0-2-1.7-3.7-3.7-3.7c-2,0-3.7,1.7-3.7,3.7v6.1h7.4V117.7z"/>
			<path fill="#04515B" d="M17.8,149.3c0-2-1.7-3.7-3.7-3.7s-3.7,1.7-3.7,3.7v6.1h7.4V149.3z"/>
			<path fill="#04515B" d="M36.3,149.3c0-2-1.7-3.7-3.7-3.7c-2,0-3.7,1.7-3.7,3.7v6.1h7.4V149.3z"/>
			<path fill="#04515B" d="M54.8,149.3c0-2-1.7-3.7-3.7-3.7c-2,0-3.7,1.7-3.7,3.7v6.1h7.4V149.3z"/>
			<path fill="#04515B" d="M73.3,149.3c0-2-1.7-3.7-3.7-3.7s-3.7,1.7-3.7,3.7v6.1h7.4V149.3z"/>
			<path fill="#04515B" d="M91.9,149.3c0-2-1.7-3.7-3.7-3.7c-2,0-3.7,1.7-3.7,3.7v6.1h7.4V149.3z"/>
			<path fill="#04515B" d="M17.8,180.9c0-2-1.7-3.7-3.7-3.7s-3.7,1.7-3.7,3.7v6.1h7.4V180.9z"/>
			<path fill="#04515B" d="M36.3,180.9c0-2-1.7-3.7-3.7-3.7c-2,0-3.7,1.7-3.7,3.7v6.1h7.4V180.9z"/>
			<path fill="#04515B" d="M73.3,180.9c0-2-1.7-3.7-3.7-3.7s-3.7,1.7-3.7,3.7v6.1h7.4V180.9z"/>
			<path fill="#04515B" d="M91.9,180.9c0-2-1.7-3.7-3.7-3.7c-2,0-3.7,1.7-3.7,3.7v6.1h7.4V180.9z"/>
			<rect x="10.4" y="69.6" fill="#833F1E" width="7.4" height="3.7"/>
			<rect x="28.9" y="69.6" fill="#833F1E" width="7.4" height="3.7"/>
			<rect x="47.4" y="69.6" fill="#833F1E" width="7.4" height="3.7"/>
			<rect x="65.9" y="69.6" fill="#833F1E" width="7.4" height="3.7"/>
			<rect x="84.4" y="69.6" fill="#833F1E" width="7.4" height="3.7"/>
		</g>
		<g>
			<g>
				<rect x="102.2" y="0" fill="#F3DB39" width="69.7" height="208.3"/>
				<rect x="102.3" y="0" fill="#833F1E" width="69.7" height="19.8"/>
				<rect x="112.1" y="36.6" fill="#E9E4D1" width="17.7" height="23"/>
				<rect x="109.8" y="59.6" fill="#833F1E" width="22.7" height="5"/>
				<polygon fill="#833F1E" points="123.3,40.7 118.7,40.7 117.7,32.4 124.3,32.4 				"/>
				<rect x="112.1" y="85.8" fill="#E9E4D1" width="17.7" height="23"/>
				<rect x="109.8" y="108.8" fill="#833F1E" width="22.7" height="5"/>
				<polygon fill="#833F1E" points="123.3,90 118.7,90 117.7,81.7 124.3,81.7 				"/>
				<rect x="112.1" y="135.1" fill="#E9E4D1" width="17.7" height="23"/>
				<rect x="109.8" y="158.1" fill="#833F1E" width="22.7" height="5"/>
				<polygon fill="#833F1E" points="123.3,139.2 118.7,139.2 117.7,131 124.3,131 				"/>
				<rect x="144.1" y="36.6" fill="#E9E4D1" width="17.7" height="23"/>
				<rect x="141.7" y="59.6" fill="#833F1E" width="22.7" height="5"/>
				<polygon fill="#833F1E" points="155.2,40.7 150.7,40.7 149.6,32.4 156.3,32.4 				"/>
				<rect x="144.1" y="85.8" fill="#E9E4D1" width="17.7" height="23"/>
				<rect x="141.7" y="108.8" fill="#833F1E" width="22.7" height="5"/>
				<polygon fill="#833F1E" points="155.2,90 150.7,90 149.6,81.7 156.3,81.7 				"/>
				<rect x="144.1" y="135.1" fill="#E9E4D1" width="17.7" height="23"/>
				<rect x="141.7" y="158.1" fill="#833F1E" width="22.7" height="5"/>
				<polygon fill="#833F1E" points="155.2,139.2 150.7,139.2 149.6,131 156.3,131 				"/>
			</g>
			<path fill="#833F1E" d="M137.2,176.4c-5.7,0-10.4,4.6-10.4,10.4v21.6h20.7v-21.6C147.5,181,142.9,176.4,137.2,176.4z"/>
		</g>
	</g>
</g>
</svg>
