<?xml version="1.0" encoding="utf-8"?>
<!-- Generator: Adobe Illustrator 18.0.0, SVG Export Plug-In . SVG Version: 6.00 Build 0)  -->
<!DOCTYPE svg PUBLIC "-//W3C//DTD SVG 1.1//EN" "http://www.w3.org/Graphics/SVG/1.1/DTD/svg11.dtd">
<svg version="1.1" id="Layer_1" xmlns="http://www.w3.org/2000/svg" xmlns:xlink="http://www.w3.org/1999/xlink" x="0px" y="0px"
	 viewBox="0 0 82.4 88.1" enable-background="new 0 0 82.4 88.1" xml:space="preserve">
<g id="LiveArt_4_">
	<g>
		<path fill="#383838" d="M5.2,85.6c0,0.7-0.5,1.2-1.2,1.2c-0.7,0-1.2-0.5-1.2-1.2v-2.9c0-0.7,0.5-1.2,1.2-1.2
			c0.7,0,1.2,0.5,1.2,1.2V85.6z"/>
		<path fill="#383838" d="M18.3,85.6c0,0.7-0.5,1.2-1.2,1.2c-0.7,0-1.2-0.5-1.2-1.2v-2.9c0-0.7,0.5-1.2,1.2-1.2
			c0.7,0,1.2,0.5,1.2,1.2V85.6z"/>
		<path fill="#383838" d="M8.6,43.6c0-0.6,0.5-1.2,1.2-1.2h1.6c0.6,0,1.2,0.5,1.2,1.2v9.2h2.1v-8.9c0-1.9-1.6-3.5-3.5-3.5H10
			c-1.9,0-3.5,1.6-3.5,3.5v8.9h2.1L8.6,43.6L8.6,43.6z"/>
		<path fill="#A8B338" d="M18.3,84.1c1.5,0,2.8-1.2,2.8-2.8V53.1c0-1.5-1.2-2.8-2.8-2.8H2.8c-1.5,0-2.8,1.2-2.8,2.8v28.2
			c0,1.5,1.2,2.8,2.8,2.8L18.3,84.1L18.3,84.1z"/>
		<path fill="#808C37" d="M18.3,59.9c0,0.7-0.6,1.3-1.3,1.3H4c-0.7,0-1.3-0.6-1.3-1.3v-5.5c0-0.7,0.6-1.3,1.3-1.3h13
			c0.7,0,1.3,0.6,1.3,1.3V59.9z"/>
		<path fill="#808C37" d="M18.3,80c0,0.7-0.6,1.3-1.3,1.3H4c-0.7,0-1.3-0.6-1.3-1.3V65.1c0-0.7,0.6-1.3,1.3-1.3h13
			c0.7,0,1.3,0.6,1.3,1.3V80z"/>
		<path fill="#C47F2A" d="M26.9,39.1v-0.5V18.5c-2.3,1.7-3.7,4.3-3.7,7.4v0v9.5c0,1.8-1.5,3.3-3.3,3.3h-2.2h-3h-0.2h-0.9h0
			c-0.1,0-0.2,0-0.3,0c0,0-0.1,0-0.1,0c-0.1,0-0.1,0-0.2,0c0,0-0.1,0-0.1,0c-0.1,0-0.1,0-0.2,0c0,0-0.1,0-0.1,0
			c-0.1,0-0.1,0-0.2,0.1c0,0-0.1,0-0.1,0c-0.1,0-0.2,0.1-0.3,0.1c0,0,0,0,0,0c-0.1,0-0.2,0.1-0.2,0.1c0,0-0.1,0-0.1,0.1
			c-0.1,0-0.1,0.1-0.2,0.1c0,0-0.1,0-0.1,0.1c-0.1,0-0.1,0.1-0.2,0.1c0,0-0.1,0-0.1,0.1c-0.1,0-0.1,0.1-0.2,0.2c0,0,0,0-0.1,0.1
			c-0.1,0.1-0.1,0.1-0.2,0.2c0,0,0,0,0,0.1c0,0.1-0.1,0.1-0.1,0.2c0,0,0,0.1-0.1,0.1c0,0.1-0.1,0.1-0.1,0.2c0,0,0,0.1-0.1,0.1
			c0,0.1-0.1,0.1-0.1,0.2c0,0,0,0.1,0,0.1c0,0,0,0,0,0c0,0,0,0.1,0,0.1c0,0.1-0.1,0.1-0.1,0.2c0,0,0,0,0,0.1c0,0.1,0,0.1-0.1,0.2
			c0,0,0,0,0,0c0,0,0,0.1,0,0.1c0,0.1,0,0.1,0,0.2v0c0,0.1,0,0.2,0,0.3c0,0,0,0,0,0.1c0,0.1,0,0.2,0,0.3h4.8h3h6
			C25.4,42.4,26.9,40.9,26.9,39.1"/>
		<path fill="#039B9D" d="M74.8,64.1h-6.3v-9.4c0-1.5,1.2-2.8,2.8-2.8h0.8c1.5,0,2.8,1.2,2.8,2.8V64.1z M70.3,62.2H73v-7.6
			c0-0.5-0.4-0.9-0.9-0.9h-0.8c-0.5,0-0.9,0.4-0.9,0.9L70.3,62.2L70.3,62.2z"/>
		<path fill="#9CC6BE" d="M82.4,70.5c0,0.9-0.7,1.6-1.6,1.6H62.6c-0.9,0-1.6-0.7-1.6-1.6V58.9c0-0.9,0.7-1.6,1.6-1.6h18.2
			c0.9,0,1.6,0.7,1.6,1.6V70.5z"/>
		<rect x="73" y="56.5" fill="#039B9D" width="1.8" height="15.6"/>
		<path fill="#039B9D" d="M55.6,83c-1,0-1.9,0.8-1.9,1.9s0.8,1.9,1.9,1.9h6.5v-1.9V83H55.6z"/>
		<path fill="#039B9D" d="M62.2,83c-1,0-1.9,0.8-1.9,1.9s0.8,1.9,1.9,1.9h6.5v-1.9V83H62.2z"/>
		<path fill="#EDBA22" d="M62.2,66.3H58v17.5c0,1.7,1.4,3,3,3h1.2V66.3z"/>
		<path fill="#EDBA22" d="M68.7,66.3h-4.2v17.5c0,1.7,1.4,3,3,3h1.2L68.7,66.3L68.7,66.3z"/>
		<polygon fill="#C47F2A" points="37.8,82.5 43,82.5 43,61.1 37.8,61.1 		"/>
		<polygon fill="#C47F2A" points="27.8,82.5 33.1,82.5 33.1,61.1 27.8,61.1 		"/>
		<path fill="#383838" d="M55.9,12.5c0,1.1,0.9,2,2,2c0.3,0,0.5-0.1,0.8-0.1c0.8-0.3,1.3-1,1.3-1.9v-0.8h-4.1L55.9,12.5L55.9,12.5z"
			/>
		<path fill="#383838" d="M27,7.9c0,1.1,0.9,2,2,2c0.3,0,0.5-0.1,0.8-0.1c0.8-0.3,1.3-1,1.3-1.9V7H27L27,7.9L27,7.9z"/>
		<path fill="#383838" d="M30.5,6.1c0,0.3-0.3,0.6-0.6,0.6h-1.2c-0.3,0-0.6-0.3-0.6-0.6c0-0.3,0.3-0.6,0.6-0.6h1.2
			C30.2,5.5,30.5,5.8,30.5,6.1"/>
		<path fill="#C47F2A" d="M29.8,7.5V5.3c-0.3-0.2-0.6-0.3-0.9-0.5c-0.2,0.6-0.3,1.3-0.3,2v0.1v2.3c0,3.1,2.1,5.8,5,6.6v1.2
			c0,1,0.8,1.8,1.8,1.8c1,0,1.8-0.8,1.8-1.8v-1.2c1-0.3,1.9-0.8,2.6-1.4h-3.2C32.9,14.3,29.8,11.2,29.8,7.5"/>
		<path fill="#9CC6BE" d="M44,34.9h-6.8h-3.4h-6.8v28.9H34v-8.5c0-0.8,0.6-1.4,1.4-1.4c0.8,0,1.4,0.6,1.4,1.4v8.5H44V34.9z"/>
		<path fill="#C47F2A" d="M44,18.5v29.9v3v4.8c0.3,0,0.5,0,0.8-0.1l0,0c0.1,0,0.2,0,0.3-0.1c0,0,0,0,0,0c0,0,0,0,0,0
			c0,0,0.1,0,0.1,0c0.1,0,0.1-0.1,0.2-0.1c0,0,0,0,0,0c0,0,0.1,0,0.1-0.1c0,0,0.1,0,0.1,0c0.2-0.1,0.3-0.2,0.5-0.3c0,0,0,0,0.1-0.1
			c0.1,0,0.1-0.1,0.2-0.1c0,0,0.1,0,0.1-0.1c0,0,0.1-0.1,0.1-0.1c0,0,0.1-0.1,0.1-0.1c0,0,0.1-0.1,0.1-0.1c0,0,0-0.1,0.1-0.1
			c0-0.1,0.1-0.1,0.1-0.2c0,0,0-0.1,0.1-0.1c0.1-0.1,0.1-0.2,0.2-0.2l0,0c0-0.1,0.1-0.2,0.1-0.3c0,0,0-0.1,0-0.1
			c0-0.1,0.1-0.1,0.1-0.2c0,0,0-0.1,0-0.1c0-0.1,0-0.1,0.1-0.2c0,0,0-0.1,0-0.1c0-0.1,0-0.1,0-0.2c0,0,0-0.1,0-0.1
			c0-0.1,0-0.1,0-0.2c0,0,0-0.1,0-0.1c0-0.1,0-0.2,0-0.3v-0.9v-0.2v-3V35.7v-9.8C47.7,22.9,46.3,20.2,44,18.5"/>
		<polygon fill="#039B9D" points="42.2,47.5 42.2,51 40.1,52.5 38.1,51 38.1,47.5 		"/>
		<rect x="56.1" y="43.2" fill="#039B9D" width="14.5" height="32.1"/>
		<path fill="#BF452D" d="M59,10.8c0,0.3-0.2,0.5-0.5,0.5h-1.1c-0.3,0-0.5-0.2-0.5-0.5c0-0.3,0.2-0.5,0.5-0.5h1.1
			C58.8,10.3,59,10.5,59,10.8"/>
		<path fill="#EDBA22" d="M63.3,17.4c-2.8-0.5-4.9-2.9-4.9-5.9V9.7l-0.9,0c-0.1,0.4-0.1,0.9-0.1,1.3V11v2c0,2.8,1.9,5.1,4.4,5.7v4.1
			c0,0.9,0.7,1.6,1.6,1.6s1.6-0.7,1.6-1.6v-4.1c0.9-0.2,1.7-0.7,2.3-1.2h-2.8C64,17.5,63.7,17.5,63.3,17.4"/>
		<path fill="#F9F2D8" d="M73.8,27.6c0-4.3-3.5-7.7-7.7-7.7h-5.4c-4.3,0-7.7,3.5-7.7,7.7v0v15.7h20.9V27.6z"/>
		<path fill="#EDBA22" d="M52.9,27.6L52.9,27.6v8.3v12.5v2.6v0.2v0.8c0,0.1,0,0.2,0,0.3c0,0,0,0.1,0,0.1c0,0.1,0,0.1,0,0.2
			c0,0,0,0.1,0,0.1c0,0.1,0,0.1,0,0.2c0,0,0,0.1,0,0.1c0,0.1,0,0.1,0.1,0.2c0,0,0,0,0,0.1c0,0.1,0.1,0.2,0.1,0.2c0,0,0,0,0,0
			c0,0.1,0.1,0.1,0.1,0.2c0,0,0,0,0,0.1c0,0,0.1,0.1,0.1,0.1c0,0,0,0.1,0.1,0.1c0,0,0.1,0.1,0.1,0.1c0,0,0,0,0.1,0.1
			c0,0,0.1,0.1,0.1,0.1c0,0,0,0,0,0c0.1,0.1,0.1,0.1,0.2,0.2c0,0,0,0,0,0c0.1,0,0.1,0.1,0.2,0.1c0,0,0.1,0,0.1,0
			c0,0,0.1,0.1,0.1,0.1c0,0,0.1,0,0.1,0c0,0,0.1,0.1,0.2,0.1c0,0,0.1,0,0.1,0c0,0,0,0,0,0c0,0,0.1,0,0.1,0c0.1,0,0.1,0,0.2,0.1
			c0,0,0,0,0,0c0.1,0,0.1,0,0.2,0c0,0,0,0,0,0c0,0,0.1,0,0.1,0c0.1,0,0.1,0,0.2,0h0h0c0.1,0,0.1,0,0.2,0c0,0,0,0,0.1,0
			c0.1,0,0.1,0,0.2,0v-4.1v-2.6v-27C54.2,22.7,52.9,25,52.9,27.6"/>
		<path fill="#EDBA22" d="M70.6,21.3v27v2.6V55c0.2,0,0.4,0,0.6-0.1l0,0c0.1,0,0.2,0,0.2-0.1c0,0,0,0,0,0c0,0,0,0,0,0c0,0,0,0,0.1,0
			c0.1,0,0.1,0,0.2-0.1c0,0,0,0,0,0c0,0,0.1,0,0.1-0.1c0,0,0,0,0.1,0c0.1-0.1,0.3-0.2,0.4-0.3c0,0,0,0,0.1,0c0,0,0.1-0.1,0.1-0.1
			c0,0,0,0,0.1-0.1c0,0,0.1-0.1,0.1-0.1c0,0,0,0,0.1-0.1c0,0,0.1-0.1,0.1-0.1c0,0,0,0,0.1-0.1c0,0,0.1-0.1,0.1-0.1c0,0,0,0,0-0.1
			c0-0.1,0.1-0.1,0.1-0.2v0c0-0.1,0.1-0.1,0.1-0.2c0,0,0-0.1,0-0.1c0-0.1,0-0.1,0.1-0.2c0,0,0-0.1,0-0.1c0,0,0-0.1,0-0.2
			c0,0,0-0.1,0-0.1c0-0.1,0-0.1,0-0.2c0,0,0-0.1,0-0.1c0-0.1,0-0.1,0-0.2c0,0,0-0.1,0-0.1c0-0.1,0-0.2,0-0.3v-0.8v-0.2v-2.6V35.8
			v-8.3C73.8,25,72.5,22.7,70.6,21.3"/>
		<path fill="#EDBA22" d="M26.9,18.5c-2.3,1.7-3.7,4.3-3.7,7.4v0v0v-0.3v3.9h5.5L26.9,18.5z"/>
		<path fill="#EDBA22" d="M42.2,29.6h5.5v-3.9v0.3c0-3-1.5-5.7-3.7-7.4L42.2,29.6z"/>
		<path fill="#F9F2D8" d="M44.8,19.2c-1.6-1.5-3.8-2.4-6.2-2.4h-6.3c-2,0-3.9,0.7-5.4,1.8v27H44v-27C44.3,18.8,44.5,19,44.8,19.2"/>
		<path fill="#595A5C" d="M36.1,82.5c-1.2,0-2.1,1-2.1,2.1c0,1.2,1,2.1,2.1,2.1h7v-2.1v-2.1H36.1z"/>
		<path fill="#595A5C" d="M26.1,82.5c-1.2,0-2.1,1-2.1,2.1c0,1.2,1,2.1,2.1,2.1h7v-2.1v-2.1H26.1z"/>
		<polygon fill="#383838" points="32.4,8.4 27.7,8.4 27,7 32.4,7 		"/>
		<polygon fill="#383838" points="61.2,12.6 57.2,12.6 55.9,11.6 61.2,11.6 		"/>
		<path fill="#BF452D" d="M63.3,5c-2,0-3.8,1-4.9,2.6c-0.3,0.5-0.6,1-0.8,1.6h0c0,0.2-0.1,0.3-0.1,0.5l0.9,0v1.9
			c0,2.9,2.1,5.4,4.9,5.9c0.3,0.1,0.7,0.1,1,0.1h2.8c0.1-0.1,0.2-0.2,0.3-0.2h0c0.5-0.4,0.8-1,1.1-1.5c0.2-0.4,0.4-0.8,0.5-1.3
			c0,0,0,0,0-0.1c0-0.1,0-0.2,0.1-0.3c0,0,0-0.1,0-0.1c0-0.1,0-0.2,0-0.2c0,0,0-0.1,0-0.1c0-0.1,0-0.2,0-0.2c0,0,0-0.1,0-0.1
			c0-0.1,0-0.2,0-0.3v-2C69.3,7.7,66.6,5,63.3,5"/>
		<path fill="#BF452D" d="M58.4,11.6v17.2c0,5,4.1,9.1,9.1,9.1h3.1V11.6H58.4z"/>
		<path fill="#EDBA22" d="M58.6,14.9c0.6,0,1.2-0.5,1.2-1.2c0-0.2,0-0.3-0.1-0.4c-0.2-0.4-0.6-0.7-1.1-0.7h-0.8v2.3L58.6,14.9
			L58.6,14.9z"/>
		<path fill="#F06049" d="M72.2,9.3c2.1,2.1,2.1,5.6,0,7.7c-2.1,2.1-5.6,2.1-7.7,0l-6.7-6.7c-2.1-2.1-2.1-5.6,0-7.7
			c2.1-2.1,5.6-2.1,7.7,0L72.2,9.3z"/>
		<path fill="#F9F2D8" d="M64.2,10.7c-2.1-2.1-2.3-5.4-0.6-7.8c-0.3,0.2-0.5,0.4-0.7,0.6c-2.3,2.3-2.3,6.1,0,8.5
			c2.3,2.3,6.1,2.3,8.5,0c0.2-0.2,0.4-0.5,0.6-0.7C69.6,13,66.3,12.8,64.2,10.7"/>
		<path fill="#F79D81" d="M71.3,3.5c-2.1-2.1-5.4-2.3-7.8-0.6c-1.7,2.3-1.5,5.6,0.6,7.8c2.1,2.1,5.4,2.3,7.8,0.6
			C73.7,8.9,73.5,5.6,71.3,3.5"/>
		<rect x="26.9" y="42.4" fill="#FEE175" width="17.1" height="3.2"/>
		<rect x="26.9" y="36" fill="#FEE175" width="17.1" height="3.2"/>
		<rect x="26.9" y="29.6" fill="#FEE175" width="17.1" height="3.2"/>
		<polygon fill="#FEE175" points="27.7,23.2 26.9,23.2 26.9,26.4 28.2,26.4 42.6,26.4 44,26.4 44,23.2 43.2,23.2 		"/>
		<path fill="#FEE175" d="M44,18.5c-1.5-1.1-3.4-1.8-5.4-1.8h-6.3c-2,0-3.9,0.7-5.4,1.8V20h0.2h16.6H44L44,18.5L44,18.5z"/>
		<path fill="#383838" d="M35.4,0h-8.9c0,2.3,1.3,4.3,3.3,5.3v2.2c0,3.7,3,6.8,6.8,6.8h3.2c0.1-0.1,0.2-0.2,0.3-0.3l0,0
			c0.5-0.5,1-1.1,1.3-1.8c0.2-0.5,0.4-0.9,0.5-1.5c0,0,0,0,0-0.1c0-0.1,0-0.2,0.1-0.3c0,0,0-0.1,0-0.1c0-0.1,0-0.2,0-0.3
			c0,0,0-0.1,0-0.1c0-0.1,0-0.2,0-0.3c0,0,0-0.1,0-0.1c0-0.1,0-0.3,0-0.4V6.8C42.2,3,39.2,0,35.4,0"/>
		<path fill="#C47F2A" d="M30.3,10.6c0.6,0,1.1-0.5,1.1-1.1c0-0.1,0-0.3-0.1-0.4c-0.2-0.4-0.6-0.7-1-0.7h-0.7v2.2L30.3,10.6
			L30.3,10.6z"/>
		<path fill="#F9F2D8" d="M60.8,46.8h-0.4l0.3-0.3c0.1-0.1,0.1-0.2,0.1-0.3c0-0.1,0-0.2-0.1-0.3c-0.2-0.2-0.4-0.2-0.6,0l-0.3,0.3
			v-0.4c0-0.2-0.2-0.4-0.4-0.4c-0.2,0-0.4,0.2-0.4,0.4v0.4L58.7,46c-0.2-0.2-0.4-0.2-0.6,0C58.1,46,58,46.1,58,46.2
			c0,0.1,0,0.2,0.1,0.3l0.3,0.3H58c-0.2,0-0.4,0.2-0.4,0.4c0,0.2,0.2,0.4,0.4,0.4h0.4l-0.3,0.3C58.1,48,58,48.1,58,48.2
			c0,0.1,0,0.2,0.1,0.3c0.2,0.2,0.4,0.2,0.6,0l0.3-0.3v0.4c0,0.2,0.2,0.4,0.4,0.4c0.2,0,0.4-0.2,0.4-0.4v-0.4l0.3,0.3
			c0.2,0.1,0.4,0.2,0.6,0c0.1-0.1,0.1-0.2,0.1-0.3c0-0.1,0-0.2-0.1-0.3l-0.3-0.3h0.4c0.2,0,0.4-0.2,0.4-0.4
			C61.2,47,61.1,46.8,60.8,46.8"/>
		<path fill="#F9F2D8" d="M65.8,47.6h0.4L66,47.9c-0.2,0.2-0.2,0.4,0,0.6c0.2,0.2,0.4,0.2,0.6,0l0.3-0.3v0.4c0,0.2,0.2,0.4,0.4,0.4
			c0.2,0,0.4-0.2,0.4-0.4v-0.4l0.3,0.3c0.2,0.1,0.4,0.1,0.6,0c0.1-0.1,0.1-0.2,0.1-0.3c0-0.1,0-0.2-0.1-0.3l-0.3-0.3h0.4
			c0.2,0,0.4-0.2,0.4-0.4c0-0.2-0.2-0.4-0.4-0.4h-0.4l0.3-0.3c0.1-0.1,0.1-0.2,0.1-0.3c0-0.1,0-0.2-0.1-0.3c-0.2-0.2-0.4-0.2-0.6,0
			l-0.3,0.3v-0.4c0-0.2-0.2-0.4-0.4-0.4c-0.2,0-0.4,0.2-0.4,0.4v0.4L66.5,46c-0.2-0.2-0.4-0.2-0.6,0c-0.2,0.2-0.2,0.4,0,0.6l0.3,0.3
			h-0.4c-0.2,0-0.4,0.2-0.4,0.4C65.4,47.5,65.6,47.6,65.8,47.6"/>
		<path fill="#F9F2D8" d="M64.7,52.9h-0.4l0.3-0.3c0.1-0.1,0.1-0.2,0.1-0.3c0-0.1,0-0.2-0.1-0.3c-0.2-0.2-0.4-0.2-0.6,0l-0.3,0.3
			v-0.4c0-0.2-0.2-0.4-0.4-0.4c-0.2,0-0.4,0.2-0.4,0.4v0.4L62.6,52c-0.2-0.1-0.4-0.2-0.6,0c-0.1,0.1-0.1,0.2-0.1,0.3
			c0,0.1,0,0.2,0.1,0.3l0.3,0.3h-0.4c-0.2,0-0.4,0.2-0.4,0.4s0.2,0.4,0.4,0.4h0.4L62.1,54c-0.1,0.1-0.1,0.2-0.1,0.3s0,0.2,0.1,0.3
			c0.2,0.2,0.4,0.2,0.6,0l0.3-0.3v0.4c0,0.2,0.2,0.4,0.4,0.4c0.2,0,0.4-0.2,0.4-0.4v-0.4l0.3,0.3c0.2,0.2,0.4,0.2,0.6,0
			c0.1-0.1,0.1-0.2,0.1-0.3c0-0.1,0-0.2-0.1-0.3l-0.3-0.3h0.4c0.2,0,0.4-0.2,0.4-0.4S65,52.9,64.7,52.9"/>
		<path fill="#F9F2D8" d="M60.8,58.9h-0.4l0.3-0.3c0.2-0.2,0.2-0.4,0-0.6c-0.2-0.2-0.4-0.2-0.6,0l-0.3,0.3v-0.4
			c0-0.2-0.2-0.4-0.4-0.4c-0.2,0-0.4,0.2-0.4,0.4v0.4l-0.3-0.3c-0.2-0.2-0.4-0.2-0.6,0c-0.2,0.2-0.2,0.4,0,0.6l0.3,0.3H58
			c-0.2,0-0.4,0.2-0.4,0.4c0,0.2,0.2,0.4,0.4,0.4h0.4l-0.3,0.3c-0.1,0.1-0.1,0.2-0.1,0.3c0,0.1,0,0.2,0.1,0.3c0.2,0.2,0.4,0.2,0.6,0
			l0.3-0.3v0.4c0,0.2,0.2,0.4,0.4,0.4c0.2,0,0.4-0.2,0.4-0.4v-0.4l0.3,0.3c0.2,0.2,0.4,0.2,0.6,0c0.1-0.1,0.1-0.2,0.1-0.3
			c0-0.1,0-0.2-0.1-0.3l-0.3-0.3h0.4c0.2,0,0.4-0.2,0.4-0.4C61.2,59.1,61.1,58.9,60.8,58.9"/>
		<path fill="#F9F2D8" d="M68.6,58.9h-0.4l0.3-0.3c0.2-0.2,0.2-0.4,0-0.6c-0.2-0.2-0.4-0.2-0.6,0l-0.3,0.3v-0.4
			c0-0.2-0.2-0.4-0.4-0.4c-0.2,0-0.4,0.2-0.4,0.4v0.4l-0.3-0.3c-0.2-0.2-0.4-0.2-0.6,0c-0.2,0.2-0.2,0.4,0,0.6l0.3,0.3h-0.4
			c-0.2,0-0.4,0.2-0.4,0.4c0,0.2,0.2,0.4,0.4,0.4h0.4L66,60.1c-0.2,0.2-0.2,0.4,0,0.6c0.2,0.2,0.4,0.2,0.6,0l0.3-0.3v0.4
			c0,0.2,0.2,0.4,0.4,0.4c0.2,0,0.4-0.2,0.4-0.4v-0.4l0.3,0.3c0.2,0.2,0.4,0.2,0.6,0c0.1-0.1,0.1-0.2,0.1-0.3c0-0.1,0-0.2-0.1-0.3
			l-0.3-0.3h0.4c0.2,0,0.4-0.2,0.4-0.4C69,59.1,68.9,58.9,68.6,58.9"/>
		<path fill="#F9F2D8" d="M64.7,65h-0.4l0.3-0.3c0.1-0.1,0.1-0.2,0.1-0.3c0-0.1,0-0.2-0.1-0.3c-0.2-0.2-0.4-0.2-0.6,0l-0.3,0.3V64
			c0-0.2-0.2-0.4-0.4-0.4c-0.2,0-0.4,0.2-0.4,0.4v0.4l-0.3-0.3c-0.2-0.2-0.4-0.2-0.6,0c-0.1,0.1-0.1,0.2-0.1,0.3
			c0,0.1,0,0.2,0.1,0.3l0.3,0.3h-0.4c-0.2,0-0.4,0.2-0.4,0.4c0,0.2,0.2,0.4,0.4,0.4h0.4l-0.3,0.3c-0.2,0.2-0.2,0.4,0,0.6
			c0.2,0.2,0.4,0.2,0.6,0l0.3-0.3v0.4c0,0.2,0.2,0.4,0.4,0.4c0.2,0,0.4-0.2,0.4-0.4v-0.4l0.3,0.3c0.2,0.2,0.4,0.2,0.6,0
			c0.2-0.2,0.2-0.4,0-0.6l-0.3-0.3h0.4c0.2,0,0.4-0.2,0.4-0.4C65.1,65.2,65,65,64.7,65"/>
		<path fill="#F9F2D8" d="M60.8,71.1h-0.4l0.3-0.3c0.1-0.1,0.1-0.2,0.1-0.3c0-0.1,0-0.2-0.1-0.3c-0.2-0.2-0.4-0.2-0.6,0l-0.3,0.3
			v-0.4c0-0.2-0.2-0.4-0.4-0.4c-0.2,0-0.4,0.2-0.4,0.4v0.4l-0.3-0.3c-0.2-0.2-0.4-0.2-0.6,0c-0.1,0.1-0.1,0.2-0.1,0.3
			c0,0.1,0,0.2,0.1,0.3l0.3,0.3H58c-0.2,0-0.4,0.2-0.4,0.4c0,0.2,0.2,0.4,0.4,0.4h0.4l-0.3,0.3c-0.1,0.1-0.1,0.2-0.1,0.3
			c0,0.1,0,0.2,0.1,0.3c0.2,0.2,0.4,0.2,0.6,0l0.3-0.3v0.4c0,0.2,0.2,0.4,0.4,0.4c0.2,0,0.4-0.2,0.4-0.4v-0.4l0.3,0.3
			c0.2,0.1,0.4,0.2,0.6,0c0.1-0.1,0.1-0.2,0.1-0.3c0-0.1,0-0.2-0.1-0.3l-0.3-0.3h0.4c0.2,0,0.4-0.2,0.4-0.4
			C61.2,71.2,61.1,71.1,60.8,71.1"/>
		<path fill="#F9F2D8" d="M68.6,71.1h-0.4l0.3-0.3c0.1-0.1,0.1-0.2,0.1-0.3c0-0.1,0-0.2-0.1-0.3c-0.2-0.2-0.4-0.2-0.6,0l-0.3,0.3
			v-0.4c0-0.2-0.2-0.4-0.4-0.4c-0.2,0-0.4,0.2-0.4,0.4v0.4l-0.3-0.3c-0.2-0.2-0.4-0.2-0.6,0c-0.2,0.2-0.2,0.4,0,0.6l0.3,0.3h-0.4
			c-0.2,0-0.4,0.2-0.4,0.4c0,0.2,0.2,0.4,0.4,0.4h0.4L66,72.2c-0.2,0.2-0.2,0.4,0,0.6c0.2,0.2,0.4,0.2,0.6,0l0.3-0.3v0.4
			c0,0.2,0.2,0.4,0.4,0.4c0.2,0,0.4-0.2,0.4-0.4v-0.4l0.3,0.3c0.1,0.2,0.4,0.2,0.6,0c0.1-0.1,0.1-0.2,0.1-0.3c0-0.1,0-0.2-0.1-0.3
			l-0.3-0.3h0.4c0.2,0,0.4-0.2,0.4-0.4C69,71.2,68.9,71.1,68.6,71.1"/>
	</g>
</g>
</svg>
